<?xml version="1.0" encoding="UTF-8" standalone="no"?>
<!DOCTYPE svg PUBLIC "-//W3C//DTD SVG 1.1//EN"
 "http://www.w3.org/Graphics/SVG/1.1/DTD/svg11.dtd">
<!-- Generated by graphviz version 2.40.1 (20161225.0304)
 -->
<!-- Title: dependencies Pages: 1 -->
<svg width="992pt" height="284pt"
 viewBox="0.00 0.00 992.00 284.00" xmlns="http://www.w3.org/2000/svg" xmlns:xlink="http://www.w3.org/1999/xlink">
<g id="graph0" class="graph" transform="scale(1 1) rotate(0) translate(4 280)">
<title>dependencies</title>
<polygon fill="#ffffff" stroke="transparent" points="-4,4 -4,-280 988,-280 988,4 -4,4"/>
<text text-anchor="start" x="471.0091" y="-42.4" font-family="sans-serif" font-weight="bold" font-size="14.00" fill="#000000">Legend</text>
<polygon fill="#ffffb3" stroke="transparent" points="258,-10 258,-30 278,-30 278,-10 258,-10"/>
<text text-anchor="start" x="281.629" y="-15.4" font-family="sans-serif" font-size="14.00" fill="#000000"> &#160;Declarations</text>
<polygon fill="#8dd3c7" stroke="transparent" points="371,-10 371,-30 391,-30 391,-10 371,-10"/>
<text text-anchor="start" x="394.7251" y="-15.4" font-family="sans-serif" font-size="14.00" fill="#000000"> &#160;Module</text>
<polygon fill="#80b1d3" stroke="transparent" points="457,-10 457,-30 477,-30 477,-10 457,-10"/>
<text text-anchor="start" x="480.7812" y="-15.4" font-family="sans-serif" font-size="14.00" fill="#000000"> &#160;Bootstrap</text>
<polygon fill="#fdb462" stroke="transparent" points="554,-10 554,-30 574,-30 574,-10 554,-10"/>
<text text-anchor="start" x="577.6732" y="-15.4" font-family="sans-serif" font-size="14.00" fill="#000000"> &#160;Providers</text>
<polygon fill="#fb8072" stroke="transparent" points="650,-10 650,-30 670,-30 670,-10 650,-10"/>
<text text-anchor="start" x="673.7258" y="-15.4" font-family="sans-serif" font-size="14.00" fill="#000000"> &#160;Exports</text>
<g id="clust1" class="cluster">
<title>cluster_AppModule</title>
<polygon fill="none" stroke="#000000" stroke-dasharray="1,5" points="8,-70 8,-268 976,-268 976,-70 8,-70"/>
</g>
<g id="clust2" class="cluster">
<title>cluster_AppModule_declarations</title>
<polygon fill="none" stroke="#000000" points="546,-78 546,-130 968,-130 968,-78 546,-78"/>
</g>
<g id="clust6" class="cluster">
<title>cluster_AppModule_imports</title>
<polygon fill="none" stroke="#000000" points="158,-78 158,-130 538,-130 538,-78 158,-78"/>
</g>
<g id="clust8" class="cluster">
<title>cluster_AppModule_bootstrap</title>
<polygon fill="none" stroke="#000000" points="400,-208 400,-260 524,-260 524,-208 400,-208"/>
</g>
<g id="clust9" class="cluster">
<title>cluster_AppModule_providers</title>
<polygon fill="none" stroke="#000000" points="16,-78 16,-130 150,-130 150,-78 16,-78"/>
</g>
<!-- AppComponent -->
<g id="node1" class="node">
<title>AppComponent</title>
<polygon fill="#ffffb3" stroke="#000000" points="959.9399,-122 854.0601,-122 854.0601,-86 959.9399,-86 959.9399,-122"/>
<text text-anchor="middle" x="907" y="-99.8" font-family="Times,serif" font-size="14.00" fill="#000000">AppComponent</text>
</g>
<!-- AppModule -->
<g id="node4" class="node">
<title>AppModule</title>
<polygon fill="#8dd3c7" stroke="#000000" points="503.6571,-187 500.6571,-191 479.6571,-191 476.6571,-187 420.3429,-187 420.3429,-151 503.6571,-151 503.6571,-187"/>
<text text-anchor="middle" x="462" y="-164.8" font-family="Times,serif" font-size="14.00" fill="#000000">AppModule</text>
</g>
<!-- AppComponent&#45;&gt;AppModule -->
<g id="edge1" class="edge">
<title>AppComponent&#45;&gt;AppModule</title>
<path fill="none" stroke="#000000" d="M907,-122.2921C907,-144.2057 907,-178 907,-178 907,-178 513.8645,-178 513.8645,-178"/>
<polygon fill="#000000" stroke="#000000" points="513.8646,-174.5001 503.8645,-178 513.8645,-181.5001 513.8646,-174.5001"/>
</g>
<!-- HeaderComponent -->
<g id="node2" class="node">
<title>HeaderComponent</title>
<polygon fill="#ffffb3" stroke="#000000" points="835.7437,-122 714.2563,-122 714.2563,-86 835.7437,-86 835.7437,-122"/>
<text text-anchor="middle" x="775" y="-99.8" font-family="Times,serif" font-size="14.00" fill="#000000">HeaderComponent</text>
</g>
<!-- HeaderComponent&#45;&gt;AppModule -->
<g id="edge2" class="edge">
<title>HeaderComponent&#45;&gt;AppModule</title>
<path fill="none" stroke="#000000" d="M775,-122.1061C775,-141.3391 775,-169 775,-169 775,-169 513.8878,-169 513.8878,-169"/>
<polygon fill="#000000" stroke="#000000" points="513.8878,-165.5001 503.8878,-169 513.8878,-172.5001 513.8878,-165.5001"/>
</g>
<!-- AppFooterComponent -->
<g id="node3" class="node">
<title>AppFooterComponent</title>
<polygon fill="#ffffb3" stroke="#000000" points="695.9874,-122 554.0126,-122 554.0126,-86 695.9874,-86 695.9874,-122"/>
<text text-anchor="middle" x="625" y="-99.8" font-family="Times,serif" font-size="14.00" fill="#000000">AppFooterComponent</text>
</g>
<!-- AppFooterComponent&#45;&gt;AppModule -->
<g id="edge3" class="edge">
<title>AppFooterComponent&#45;&gt;AppModule</title>
<path fill="none" stroke="#000000" d="M625,-122.027C625,-138.3976 625,-160 625,-160 625,-160 513.9766,-160 513.9766,-160"/>
<polygon fill="#000000" stroke="#000000" points="513.9766,-156.5001 503.9766,-160 513.9765,-163.5001 513.9766,-156.5001"/>
</g>
<!-- AppComponent  -->
<g id="node8" class="node">
<title>AppComponent </title>
<polygon fill="#80b1d3" stroke="#000000" points="516.439,-252 407.561,-252 407.561,-216 516.439,-216 516.439,-252"/>
<text text-anchor="middle" x="462" y="-229.8" font-family="Times,serif" font-size="14.00" fill="#000000">AppComponent </text>
</g>
<!-- AppModule&#45;&gt;AppComponent  -->
<g id="edge7" class="edge">
<title>AppModule&#45;&gt;AppComponent </title>
<path fill="none" stroke="#000000" stroke-dasharray="1,5" d="M462,-187.1061C462,-187.1061 462,-205.991 462,-205.991"/>
<polygon fill="#000000" stroke="#000000" points="458.5001,-205.9909 462,-215.991 465.5001,-205.991 458.5001,-205.9909"/>
</g>
<!-- ShoppingListModule -->
<g id="node5" class="node">
<title>ShoppingListModule</title>
<polygon fill="#8dd3c7" stroke="#000000" points="529.5014,-122 526.5014,-126 505.5014,-126 502.5014,-122 394.4986,-122 394.4986,-86 529.5014,-86 529.5014,-122"/>
<text text-anchor="middle" x="462" y="-99.8" font-family="Times,serif" font-size="14.00" fill="#000000">ShoppingListModule</text>
</g>
<!-- ShoppingListModule&#45;&gt;AppModule -->
<g id="edge4" class="edge">
<title>ShoppingListModule&#45;&gt;AppModule</title>
<path fill="none" stroke="#000000" d="M462,-122.1061C462,-122.1061 462,-140.991 462,-140.991"/>
<polygon fill="#000000" stroke="#000000" points="458.5001,-140.9909 462,-150.991 465.5001,-140.991 458.5001,-140.9909"/>
</g>
<!-- RoutingModule -->
<g id="node6" class="node">
<title>RoutingModule</title>
<polygon fill="#8dd3c7" stroke="#000000" points="376.1681,-122 373.1681,-126 352.1681,-126 349.1681,-122 271.8319,-122 271.8319,-86 376.1681,-86 376.1681,-122"/>
<text text-anchor="middle" x="324" y="-99.8" font-family="Times,serif" font-size="14.00" fill="#000000">RoutingModule</text>
</g>
<!-- RoutingModule&#45;&gt;AppModule -->
<g id="edge5" class="edge">
<title>RoutingModule&#45;&gt;AppModule</title>
<path fill="none" stroke="#000000" d="M324,-122.027C324,-138.3976 324,-160 324,-160 324,-160 410.221,-160 410.221,-160"/>
<polygon fill="#000000" stroke="#000000" points="410.221,-163.5001 420.221,-160 410.2209,-156.5001 410.221,-163.5001"/>
</g>
<!-- AuthModule -->
<g id="node7" class="node">
<title>AuthModule</title>
<polygon fill="#8dd3c7" stroke="#000000" points="253.5482,-122 250.5482,-126 229.5482,-126 226.5482,-122 166.4518,-122 166.4518,-86 253.5482,-86 253.5482,-122"/>
<text text-anchor="middle" x="210" y="-99.8" font-family="Times,serif" font-size="14.00" fill="#000000">AuthModule</text>
</g>
<!-- AuthModule&#45;&gt;AppModule -->
<g id="edge6" class="edge">
<title>AuthModule&#45;&gt;AppModule</title>
<path fill="none" stroke="#000000" d="M210,-122.1061C210,-141.3391 210,-169 210,-169 210,-169 410.1044,-169 410.1044,-169"/>
<polygon fill="#000000" stroke="#000000" points="410.1045,-172.5001 420.1044,-169 410.1044,-165.5001 410.1045,-172.5001"/>
</g>
<!-- AuthService -->
<g id="node9" class="node">
<title>AuthService</title>
<ellipse fill="#fdb462" stroke="#000000" cx="83" cy="-104" rx="59.1083" ry="18"/>
<text text-anchor="middle" x="83" y="-99.8" font-family="Times,serif" font-size="14.00" fill="#000000">AuthService</text>
</g>
<!-- AuthService&#45;&gt;AppModule -->
<g id="edge8" class="edge">
<title>AuthService&#45;&gt;AppModule</title>
<path fill="none" stroke="#000000" d="M83,-122.2921C83,-144.2057 83,-178 83,-178 83,-178 409.9923,-178 409.9923,-178"/>
<polygon fill="#000000" stroke="#000000" points="409.9923,-181.5001 419.9923,-178 409.9923,-174.5001 409.9923,-181.5001"/>
</g>
</g>
</svg>
