<?xml version="1.0" encoding="UTF-8" standalone="no"?>
<!DOCTYPE svg PUBLIC "-//W3C//DTD SVG 1.1//EN"
 "http://www.w3.org/Graphics/SVG/1.1/DTD/svg11.dtd">
<!-- Generated by graphviz version 2.40.1 (20161225.0304)
 -->
<!-- Title: dependencies Pages: 1 -->
<svg width="599pt" height="284pt"
 viewBox="0.00 0.00 599.00 284.00" xmlns="http://www.w3.org/2000/svg" xmlns:xlink="http://www.w3.org/1999/xlink">
<g id="graph0" class="graph" transform="scale(1 1) rotate(0) translate(4 280)">
<title>dependencies</title>
<polygon fill="#ffffff" stroke="transparent" points="-4,4 -4,-280 595,-280 595,4 -4,4"/>
<text text-anchor="start" x="274.5091" y="-42.4" font-family="sans-serif" font-weight="bold" font-size="14.00" fill="#000000">Legend</text>
<polygon fill="#ffffb3" stroke="transparent" points="61.5,-10 61.5,-30 81.5,-30 81.5,-10 61.5,-10"/>
<text text-anchor="start" x="85.129" y="-15.4" font-family="sans-serif" font-size="14.00" fill="#000000"> &#160;Declarations</text>
<polygon fill="#8dd3c7" stroke="transparent" points="174.5,-10 174.5,-30 194.5,-30 194.5,-10 174.5,-10"/>
<text text-anchor="start" x="198.2251" y="-15.4" font-family="sans-serif" font-size="14.00" fill="#000000"> &#160;Module</text>
<polygon fill="#80b1d3" stroke="transparent" points="260.5,-10 260.5,-30 280.5,-30 280.5,-10 260.5,-10"/>
<text text-anchor="start" x="284.2812" y="-15.4" font-family="sans-serif" font-size="14.00" fill="#000000"> &#160;Bootstrap</text>
<polygon fill="#fdb462" stroke="transparent" points="357.5,-10 357.5,-30 377.5,-30 377.5,-10 357.5,-10"/>
<text text-anchor="start" x="381.1732" y="-15.4" font-family="sans-serif" font-size="14.00" fill="#000000"> &#160;Providers</text>
<polygon fill="#fb8072" stroke="transparent" points="453.5,-10 453.5,-30 473.5,-30 473.5,-10 453.5,-10"/>
<text text-anchor="start" x="477.2258" y="-15.4" font-family="sans-serif" font-size="14.00" fill="#000000"> &#160;Exports</text>
<g id="clust1" class="cluster">
<title>cluster_ShoppingListModule</title>
<polygon fill="none" stroke="#000000" stroke-dasharray="1,5" points="8,-70 8,-268 583,-268 583,-70 8,-70"/>
</g>
<g id="clust2" class="cluster">
<title>cluster_ShoppingListModule_declarations</title>
<polygon fill="none" stroke="#000000" points="224,-78 224,-130 575,-130 575,-78 224,-78"/>
</g>
<g id="clust6" class="cluster">
<title>cluster_ShoppingListModule_exports</title>
<polygon fill="none" stroke="#000000" points="224,-208 224,-260 400,-260 400,-208 224,-208"/>
</g>
<g id="clust8" class="cluster">
<title>cluster_ShoppingListModule_providers</title>
<polygon fill="none" stroke="#000000" points="16,-78 16,-130 216,-130 216,-78 16,-78"/>
</g>
<!-- ShoppingListComponent -->
<g id="node1" class="node">
<title>ShoppingListComponent</title>
<polygon fill="#ffffb3" stroke="#000000" points="567.2841,-122 410.7159,-122 410.7159,-86 567.2841,-86 567.2841,-122"/>
<text text-anchor="middle" x="489" y="-99.8" font-family="Times,serif" font-size="14.00" fill="#000000">ShoppingListComponent</text>
</g>
<!-- ShoppingListModule -->
<g id="node3" class="node">
<title>ShoppingListModule</title>
<polygon fill="#8dd3c7" stroke="#000000" points="379.5014,-187 376.5014,-191 355.5014,-191 352.5014,-187 244.4986,-187 244.4986,-151 379.5014,-151 379.5014,-187"/>
<text text-anchor="middle" x="312" y="-164.8" font-family="Times,serif" font-size="14.00" fill="#000000">ShoppingListModule</text>
</g>
<!-- ShoppingListComponent&#45;&gt;ShoppingListModule -->
<g id="edge1" class="edge">
<title>ShoppingListComponent&#45;&gt;ShoppingListModule</title>
<path fill="none" stroke="#000000" d="M489,-122.1061C489,-141.3391 489,-169 489,-169 489,-169 389.6737,-169 389.6737,-169"/>
<polygon fill="#000000" stroke="#000000" points="389.6738,-165.5001 379.6737,-169 389.6737,-172.5001 389.6738,-165.5001"/>
</g>
<!-- ShoppingItemComponent -->
<g id="node2" class="node">
<title>ShoppingItemComponent</title>
<polygon fill="#ffffb3" stroke="#000000" points="392.1624,-122 231.8376,-122 231.8376,-86 392.1624,-86 392.1624,-122"/>
<text text-anchor="middle" x="312" y="-99.8" font-family="Times,serif" font-size="14.00" fill="#000000">ShoppingItemComponent</text>
</g>
<!-- ShoppingItemComponent&#45;&gt;ShoppingListModule -->
<g id="edge2" class="edge">
<title>ShoppingItemComponent&#45;&gt;ShoppingListModule</title>
<path fill="none" stroke="#000000" d="M312,-122.1061C312,-122.1061 312,-140.991 312,-140.991"/>
<polygon fill="#000000" stroke="#000000" points="308.5001,-140.9909 312,-150.991 315.5001,-140.991 308.5001,-140.9909"/>
</g>
<!-- ShoppingListComponent  -->
<g id="node4" class="node">
<title>ShoppingListComponent </title>
<polygon fill="#fb8072" stroke="#000000" points="392.2843,-252 231.7157,-252 231.7157,-216 392.2843,-216 392.2843,-252"/>
<text text-anchor="middle" x="312" y="-229.8" font-family="Times,serif" font-size="14.00" fill="#000000">ShoppingListComponent </text>
</g>
<!-- ShoppingListModule&#45;&gt;ShoppingListComponent  -->
<g id="edge3" class="edge">
<title>ShoppingListModule&#45;&gt;ShoppingListComponent </title>
<path fill="none" stroke="#000000" stroke-dasharray="5,2" d="M312,-187.1061C312,-187.1061 312,-205.991 312,-205.991"/>
<polygon fill="#000000" stroke="#000000" points="308.5001,-205.9909 312,-215.991 315.5001,-205.991 308.5001,-205.9909"/>
</g>
<!-- ShoppingListService -->
<g id="node5" class="node">
<title>ShoppingListService</title>
<ellipse fill="#fdb462" stroke="#000000" cx="116" cy="-104" rx="92.0741" ry="18"/>
<text text-anchor="middle" x="116" y="-99.8" font-family="Times,serif" font-size="14.00" fill="#000000">ShoppingListService</text>
</g>
<!-- ShoppingListService&#45;&gt;ShoppingListModule -->
<g id="edge4" class="edge">
<title>ShoppingListService&#45;&gt;ShoppingListModule</title>
<path fill="none" stroke="#000000" d="M116,-122.1061C116,-141.3391 116,-169 116,-169 116,-169 234.2735,-169 234.2735,-169"/>
<polygon fill="#000000" stroke="#000000" points="234.2735,-172.5001 244.2735,-169 234.2734,-165.5001 234.2735,-172.5001"/>
</g>
</g>
</svg>
