<?xml version="1.0" encoding="UTF-8"?>
<svg width="215px" height="49px" viewBox="0 0 215 49" version="1.1" xmlns="http://www.w3.org/2000/svg" xmlns:xlink="http://www.w3.org/1999/xlink">
    <!-- Generator: Sketch 49.3 (51167) - http://www.bohemiancoding.com/sketch -->
    <title>Dashboard / Coringa / GuiaGorila / Logo@2x</title>
    <desc>Created with Sketch.</desc>
    <defs>
        <path d="M20.3910181,2.59978965 C20.8859243,2.56353297 21.3766262,2.54578073 21.8637244,2.54578073 C29.0949704,2.54593118 35.4090783,6.47203373 38.8046513,12.3111654 C39.1099135,12.8365112 38.7198145,13.4965032 38.1131941,13.4965032 L21.8637244,13.4965032 C16.750845,13.4965032 12.6722234,17.9320047 13.2516661,23.1720736 C13.6931176,27.1651231 16.9239721,30.3867026 20.9111501,30.8129068 C25.4684612,31.2998897 29.4020344,28.2431954 30.3227761,24.054119 L27.9032014,24.054119 C27.5025917,24.054119 27.1778095,23.7287115 27.1778095,23.3273304 L27.1778095,19.5021749 C27.1778095,19.1007939 27.5025917,18.7753863 27.9032014,18.7753863 L29.8377801,18.7753863 L39.4238846,18.7753863 C39.4243351,18.7791474 39.4244852,18.7830589 39.425236,18.7866695 L42.545127,18.7866695 C42.9353761,18.7866695 43.2517497,19.1036523 43.2517497,19.4946528 L43.2517497,33.1587594 C43.2517497,33.5497599 42.9353761,33.8665922 42.545127,33.8665922 L38.7999965,33.8665922 C38.4097474,33.8665922 38.0935239,33.5497599 38.0935239,33.1587594 L38.0935239,29.8798613 C35.7086347,36.8963573 29.9588039,41.8147798 21.8637244,41.8147798 C11.0478621,41.8147798 2.27859301,33.0358478 2.26688103,22.2018688 L2.26688103,22.1549307 C2.26748164,21.6920185 2.28399854,21.2245931 2.31718248,20.7547607 C2.99647725,11.1116859 10.7682761,3.30431271 20.3910181,2.59978965 Z M43.9028156,18.1396156 C46.4489697,15.4662492 50.0370396,13.7978399 54.0162594,13.7978399 C61.7380572,13.7978399 67.9978096,20.0696447 67.9978096,27.8061594 C67.9978096,35.542975 61.7380572,41.8147798 54.0162594,41.8147798 C48.9529308,41.8147798 44.5184452,39.1179443 42.065086,35.079762 L42.5452771,35.079762 C43.6023583,35.079762 44.4627383,34.2180263 44.4627383,33.1587594 L44.4627383,19.4946528 C44.4627383,18.9662981 44.2484691,18.4871382 43.9028156,18.1396156 Z M47.8327851,27.8061594 C47.8327851,31.2279781 50.6010164,34.0018402 54.0162594,34.0018402 C57.4313524,34.0018402 60.199884,31.2279781 60.199884,27.8061594 C60.199884,24.3846416 57.4313524,21.6109299 54.0162594,21.6109299 C50.6010164,21.6109299 47.8327851,24.3846416 47.8327851,27.8061594 Z M121.72426,14.66108 C122.119614,14.6284339 122.512566,14.612487 122.902215,14.612487 C126.292532,14.612487 129.440802,15.8256568 131.862329,17.8880754 L132.374803,15.7817275 C132.429309,15.5581697 132.629314,15.4009571 132.858898,15.4009571 L137.781383,15.4009571 C138.056615,15.4009571 138.279743,15.6243645 138.279743,15.9001259 L138.279743,41.0455664 C138.279743,41.3213278 138.056615,41.5447352 137.781383,41.5447352 L132.360389,41.5447352 C132.085307,41.5447352 131.862329,41.3213278 131.862329,41.0455664 L131.862329,38.9969884 C129.440652,41.059708 126.292532,42.2727273 122.902065,42.2727273 C114.961343,42.2727273 108.634622,35.6731079 109.057905,27.6862566 C109.421427,20.8290793 114.893924,15.2241869 121.72426,14.66108 Z M76.5607676,17.6269069 C78.5638163,15.6108246 81.6568298,14.7334429 84.7496931,14.7334429 C86.0228453,14.7334429 87.2962977,14.9052485 88.4975263,15.2487091 C88.8560931,15.3510101 89.0439352,15.7459221 88.8934813,16.0878784 L86.4392211,21.6580185 C86.3112903,21.9485233 85.9811026,22.0941518 85.6827474,21.9871871 C81.4602787,20.4732824 77.3172413,23.0583389 76.5286347,27.0426628 C76.520076,27.0856894 76.5160218,27.13007 76.5160218,27.1738488 L76.5160218,40.9328848 C76.5160218,41.2709295 76.2425922,41.5447352 75.9056476,41.5447352 L69.5588061,41.5447352 C69.2215612,41.5447352 68.9481315,41.2709295 68.9481315,40.9328848 L68.9481315,16.012657 C68.9481315,15.6747628 69.2215612,15.4009571 69.5588061,15.4009571 L74.3948023,15.4009571 C74.6508141,15.4009571 74.8797983,15.5608777 74.9679385,15.8017364 L75.5568408,17.4080129 C75.7107482,17.8277479 76.2457454,17.9438897 76.5607676,17.6269069 Z M100.214911,2.27272727 L106.874372,2.27272727 C107.17543,2.27272727 107.419279,2.51719662 107.419279,2.81868375 L107.419279,40.9987787 C107.419279,41.3004162 107.17543,41.5447352 106.874372,41.5447352 L100.214911,41.5447352 C99.9140029,41.5447352 99.6700034,41.3004162 99.6700034,40.9987787 L99.6700034,2.81868375 C99.6700034,2.51719662 99.9140029,2.27272727 100.214911,2.27272727 Z M89.7951535,6.74373321 C89.7951535,4.4252611 91.670872,2.54578073 93.9847386,2.54578073 C96.2989054,2.54578073 98.1747741,4.4252611 98.1747741,6.74373321 C98.1747741,9.06205487 96.2989054,10.9416857 93.9847386,10.9416857 C91.670872,10.9416857 89.7951535,9.06205487 89.7951535,6.74373321 Z M90.6050819,15.2268949 L97.3646955,15.2268949 C97.6547922,15.2268949 97.8900829,15.4624881 97.8900829,15.7531434 L97.8900829,41.0184867 C97.8900829,41.3091419 97.6547922,41.5447352 97.3646955,41.5447352 L90.6050819,41.5447352 C90.3149852,41.5447352 90.0798447,41.3091419 90.0798447,41.0184867 L90.0798447,15.7531434 C90.0798447,15.4624881 90.3149852,15.2268949 90.6050819,15.2268949 Z M118.336345,33.4770961 C117.064845,32.0820412 116.338402,30.3230654 116.338402,28.4425319 C116.338402,26.5621489 117.064845,24.7420934 118.336345,23.4081182 C119.668057,22.0733907 121.363441,21.3455491 123.179699,21.3455491 C124.995956,21.3455491 126.69104,22.0733907 127.96239,23.4081182 C129.294553,24.7420934 129.960184,26.5621489 129.960184,28.4425319 C129.960184,30.3230654 129.294553,32.0820412 127.96239,33.4770961 C126.69104,34.8116731 124.995956,35.5396652 123.179699,35.5396652 C121.363441,35.5396652 119.668057,34.8116731 118.336345,33.4770961 Z" id="path-1"></path>
    </defs>
    <g id="Dashboard-/-Coringa-/-GuiaGorila-/-Logo" stroke="none" stroke-width="1" fill="none" fill-rule="evenodd">
        <g id="General-/-LogoGorila" transform="translate(74.000000, 0.000000)">
            <mask id="mask-2" fill="white">
                <use xlink:href="#path-1"></use>
            </mask>
            <use id="LogoGorila" fill="#10C0C6" fill-rule="evenodd" xlink:href="#path-1"></use>
            <g id="Icons-/-XColor-/-White" mask="url(#mask-2)" fill="#FFFFFF" fill-rule="evenodd">
                <rect id="IconColor-/-White" x="0" y="0" width="141" height="45"></rect>
            </g>
        </g>
        <text id="Guia" font-family="Lato-Medium, Lato" font-size="36" font-weight="400" fill="#FFFFFF">
            <tspan x="0" y="41">Guia</tspan>
        </text>
    </g>
</svg>