<?xml version="1.0" encoding="UTF-8" standalone="no"?>
<!DOCTYPE svg PUBLIC "-//W3C//DTD SVG 1.1//EN"
 "http://www.w3.org/Graphics/SVG/1.1/DTD/svg11.dtd">
<!-- Generated by graphviz version 2.40.1 (20161225.0304)
 -->
<!-- Title: dependencies Pages: 1 -->
<svg width="504pt" height="211pt"
 viewBox="0.00 0.00 504.00 211.00" xmlns="http://www.w3.org/2000/svg" xmlns:xlink="http://www.w3.org/1999/xlink">
<g id="graph0" class="graph" transform="scale(1 1) rotate(0) translate(4 207)">
<title>dependencies</title>
<polygon fill="#ffffff" stroke="transparent" points="-4,4 -4,-207 500,-207 500,4 -4,4"/>
<text text-anchor="start" x="227.0091" y="-42.4" font-family="sans-serif" font-weight="bold" font-size="14.00" fill="#000000">Legend</text>
<polygon fill="#ffffb3" stroke="transparent" points="14,-10 14,-30 34,-30 34,-10 14,-10"/>
<text text-anchor="start" x="37.629" y="-15.4" font-family="sans-serif" font-size="14.00" fill="#000000"> &#160;Declarations</text>
<polygon fill="#8dd3c7" stroke="transparent" points="127,-10 127,-30 147,-30 147,-10 127,-10"/>
<text text-anchor="start" x="150.7251" y="-15.4" font-family="sans-serif" font-size="14.00" fill="#000000"> &#160;Module</text>
<polygon fill="#80b1d3" stroke="transparent" points="213,-10 213,-30 233,-30 233,-10 213,-10"/>
<text text-anchor="start" x="236.7812" y="-15.4" font-family="sans-serif" font-size="14.00" fill="#000000"> &#160;Bootstrap</text>
<polygon fill="#fdb462" stroke="transparent" points="310,-10 310,-30 330,-30 330,-10 310,-10"/>
<text text-anchor="start" x="333.6732" y="-15.4" font-family="sans-serif" font-size="14.00" fill="#000000"> &#160;Providers</text>
<polygon fill="#fb8072" stroke="transparent" points="406,-10 406,-30 426,-30 426,-10 406,-10"/>
<text text-anchor="start" x="429.7258" y="-15.4" font-family="sans-serif" font-size="14.00" fill="#000000"> &#160;Exports</text>
<g id="clust1" class="cluster">
<title>cluster_AuthModule</title>
<polygon fill="none" stroke="#000000" stroke-dasharray="1,5" points="8,-70 8,-195 488,-195 488,-70 8,-70"/>
</g>
<g id="clust2" class="cluster">
<title>cluster_AuthModule_declarations</title>
<polygon fill="none" stroke="#000000" points="16,-78 16,-130 480,-130 480,-78 16,-78"/>
</g>
<!-- SignInFormComponent -->
<g id="node1" class="node">
<title>SignInFormComponent</title>
<polygon fill="#ffffb3" stroke="#000000" points="472.5,-122 323.5,-122 323.5,-86 472.5,-86 472.5,-122"/>
<text text-anchor="middle" x="398" y="-99.8" font-family="Times,serif" font-size="14.00" fill="#000000">SignInFormComponent</text>
</g>
<!-- AuthModule -->
<g id="node4" class="node">
<title>AuthModule</title>
<polygon fill="#8dd3c7" stroke="#000000" points="294.5482,-187 291.5482,-191 270.5482,-191 267.5482,-187 207.4518,-187 207.4518,-151 294.5482,-151 294.5482,-187"/>
<text text-anchor="middle" x="251" y="-164.8" font-family="Times,serif" font-size="14.00" fill="#000000">AuthModule</text>
</g>
<!-- SignInFormComponent&#45;&gt;AuthModule -->
<g id="edge1" class="edge">
<title>SignInFormComponent&#45;&gt;AuthModule</title>
<path fill="none" stroke="#000000" d="M398,-122.1061C398,-141.3391 398,-169 398,-169 398,-169 304.7068,-169 304.7068,-169"/>
<polygon fill="#000000" stroke="#000000" points="304.7069,-165.5001 294.7068,-169 304.7068,-172.5001 304.7069,-165.5001"/>
</g>
<!-- RootComponent -->
<g id="node2" class="node">
<title>RootComponent</title>
<polygon fill="#ffffb3" stroke="#000000" points="305.0605,-122 196.9395,-122 196.9395,-86 305.0605,-86 305.0605,-122"/>
<text text-anchor="middle" x="251" y="-99.8" font-family="Times,serif" font-size="14.00" fill="#000000">RootComponent</text>
</g>
<!-- RootComponent&#45;&gt;AuthModule -->
<g id="edge2" class="edge">
<title>RootComponent&#45;&gt;AuthModule</title>
<path fill="none" stroke="#000000" d="M251,-122.1061C251,-122.1061 251,-140.991 251,-140.991"/>
<polygon fill="#000000" stroke="#000000" points="247.5001,-140.9909 251,-150.991 254.5001,-140.991 247.5001,-140.9909"/>
</g>
<!-- SignUpFormComponent -->
<g id="node3" class="node">
<title>SignUpFormComponent</title>
<polygon fill="#ffffb3" stroke="#000000" points="178.4466,-122 23.5534,-122 23.5534,-86 178.4466,-86 178.4466,-122"/>
<text text-anchor="middle" x="101" y="-99.8" font-family="Times,serif" font-size="14.00" fill="#000000">SignUpFormComponent</text>
</g>
<!-- SignUpFormComponent&#45;&gt;AuthModule -->
<g id="edge3" class="edge">
<title>SignUpFormComponent&#45;&gt;AuthModule</title>
<path fill="none" stroke="#000000" d="M101,-122.1061C101,-141.3391 101,-169 101,-169 101,-169 197.2106,-169 197.2106,-169"/>
<polygon fill="#000000" stroke="#000000" points="197.2106,-172.5001 207.2106,-169 197.2105,-165.5001 197.2106,-172.5001"/>
</g>
</g>
</svg>
