<?xml version="1.0" encoding="UTF-8"?>
<svg width="24px" height="24px" viewBox="0 0 24 24" version="1.1" xmlns="http://www.w3.org/2000/svg" xmlns:xlink="http://www.w3.org/1999/xlink">
    <!-- Generator: sketchtool 50.2 (55047) - http://www.bohemiancoding.com/sketch -->
    <title>22F6669E-B648-42B9-B8F9-D84149EED478</title>
    <desc>Created with sketchtool.</desc>
    <defs>
        <path d="M12.0014472,2 C6.48646823,2 2,6.4855034 2,12.0004824 C2,17.5144966 6.48646823,22 12.0014472,22 C17.5154614,22 22.0009648,17.5144966 22.0009648,12.0004824 C22.0009648,6.4855034 17.5154614,2 12.0014472,2" id="path-1"></path>
        <linearGradient x1="0%" y1="100%" x2="100%" y2="0%" id="linearGradient-3">
            <stop stop-color="#815AE8" offset="0%"></stop>
            <stop stop-color="#9278F4" offset="100%"></stop>
        </linearGradient>
        <path d="M5.42759509,9.88422729 L11.9566778,3.35514458 C12.2157484,3.09607398 12.6357848,3.09607398 12.8948554,3.35514458 C13.153926,3.61421517 13.153926,4.0342516 12.8948554,4.2933222 L6.03407683,11.1541008 C5.87510771,11.3130699 5.65553157,11.3744935 5.44972693,11.3383715 C5.23364718,11.3890107 4.99710726,11.3300947 4.82863616,11.1616236 L0.819302948,7.1522904 C0.560232351,6.8932198 0.560232351,6.47318337 0.819302948,6.21411278 C1.07837355,5.95504218 1.49840997,5.95504218 1.75748057,6.21411278 L5.42759509,9.88422729 Z" id="path-4"></path>
    </defs>
    <g id="Symbols" stroke="none" stroke-width="1" fill="none" fill-rule="evenodd">
        <g id="Icons-/-Platform-/-CircleSelectorChecked_Purple">
            <mask id="mask-2" fill="white">
                <use xlink:href="#path-1"></use>
            </mask>
            <use id="Circle" fill="#D8D8D8" xlink:href="#path-1"></use>
            <g id="Icons-/-XColor-/-Purple-/-GradientDiagonal" mask="url(#mask-2)" fill="url(#linearGradient-3)">
                <rect x="0" y="0" width="24" height="24"></rect>
            </g>
            <g id="Icons-/-Platform-/-Check" mask="url(#mask-2)">
                <g transform="translate(5.000000, 5.000000)">
                    <mask id="mask-5" fill="white">
                        <use xlink:href="#path-4"></use>
                    </mask>
                    <use id="Check" stroke="none" fill="#FFFFFF" fill-rule="evenodd" xlink:href="#path-4"></use>
                    <g id="Icons-/-XColor-/-White" stroke="none" fill="none" mask="url(#mask-5)" fill-rule="evenodd">
                        <rect id="IconColor-/-White" fill="#FFFFFF" x="0" y="0" width="15" height="15"></rect>
                    </g>
                </g>
            </g>
        </g>
    </g>
</svg>