<?xml version="1.0" encoding="UTF-8"?>
<svg width="41px" height="40px" viewBox="0 0 41 40" version="1.1" xmlns="http://www.w3.org/2000/svg" xmlns:xlink="http://www.w3.org/1999/xlink">
    <!-- Generator: sketchtool 50.2 (55047) - http://www.bohemiancoding.com/sketch -->
    <title>D5684444-A12B-4CD2-AB39-1B7FE83C4278</title>
    <desc>Created with sketchtool.</desc>
    <defs></defs>
    <g id="Symbols" stroke="none" stroke-width="1" fill="none" fill-rule="evenodd">
        <g id="Footer" transform="translate(-1322.000000, -36.000000)">
            <g id="Social-Medica-/-Twitter" transform="translate(1322.000000, 36.000000)">
                <path d="M20.5,40 C31.8218374,40 41,31.045695 41,20 C41,8.954305 31.8218374,0 20.5,0 C9.17816263,0 0,8.954305 0,20 C0,31.045695 9.17816263,40 20.5,40 Z" id="Oval-2" fill="#CACBCC"></path>
                <path d="M32,13.2488752 C31.1540312,13.6302634 30.2440938,13.8881754 29.2895937,14.0043453 C30.2642187,13.4103442 31.0124375,12.4707556 31.364625,11.3507018 C30.45325,11.9001346 29.4426875,12.2990579 28.3681563,12.5145933 C27.5070937,11.5823111 26.2809063,11 24.9239063,11 C22.3177187,11 20.2053125,13.1473178 20.2053125,15.7965776 C20.2053125,16.1721207 20.247,16.5381657 20.3275,16.8895982 C16.4052812,16.6894059 12.9286875,14.7795424 10.601375,11.8774851 C10.1952812,12.586195 9.96240625,13.4103442 9.96240625,14.2892905 C9.96240625,15.9529321 10.7954375,17.4214959 12.0611562,18.2814459 C11.2877812,18.2566045 10.5604062,18.041069 9.9243125,17.6815997 C9.92359375,17.7020573 9.92359375,17.7217843 9.92359375,17.7422419 C9.92359375,20.0663719 11.550125,22.0047299 13.70925,22.445299 C13.3132188,22.5548933 12.8963437,22.6133436 12.4658125,22.6133436 C12.1617813,22.6133436 11.866375,22.5833878 11.5781563,22.52786 C12.1783125,24.4333397 13.9212812,25.8200731 15.98625,25.8587964 C14.3712187,27.1454336 12.3364375,27.9118631 10.1255625,27.9118631 C9.744625,27.9118631 9.3694375,27.8892136 9,27.8453759 C11.0879688,29.2058066 13.568375,30 16.2335,30 C24.913125,30 29.6590312,22.6907902 29.6590312,16.352586 C29.6590312,16.1443569 29.6547187,15.9375889 29.645375,15.7315516 C30.5675313,15.0557201 31.3675,14.2111132 32,13.2488752" id="Fill-1" fill="#444444"></path>
            </g>
        </g>
    </g>
</svg>