<?xml version="1.0" encoding="UTF-8"?>
<svg width="41px" height="40px" viewBox="0 0 41 40" version="1.1" xmlns="http://www.w3.org/2000/svg" xmlns:xlink="http://www.w3.org/1999/xlink">
    <!-- Generator: sketchtool 50.2 (55047) - http://www.bohemiancoding.com/sketch -->
    <title>ED588B2E-AB9C-4E5D-9073-71B9FF757A98</title>
    <desc>Created with sketchtool.</desc>
    <defs></defs>
    <g id="Symbols" stroke="none" stroke-width="1" fill="none" fill-rule="evenodd">
        <g id="Footer" transform="translate(-1269.000000, -36.000000)">
            <g id="Social-Media-/-Facebook" transform="translate(1269.000000, 36.000000)">
                <path d="M20.5,40 C31.8218374,40 41,31.045695 41,20 C41,8.954305 31.8218374,0 20.5,0 C9.17816263,0 0,8.954305 0,20 C0,31.045695 9.17816263,40 20.5,40 Z" id="Oval-2" fill="#CACBCC"></path>
                <path d="M25,13.32 L23.1875075,13.32125 C21.7661572,13.32125 21.4905524,14.0225 21.4905524,15.05125 L21.4905524,17.32125 L24.8808521,17.32125 L24.4391624,20.8775 L21.4905524,20.8775 L21.4905524,30 L17.955831,30 L17.955831,20.8775 L15,20.8775 L15,17.32125 L17.955831,17.32125 L17.955831,14.7 C17.955831,11.65625 19.7454567,10 22.3582862,10 C23.609941,10 24.6858828,10.09625 25,10.14 L25,13.32 Z" id="Fill-92" fill="#444444"></path>
            </g>
        </g>
    </g>
</svg>