<?xml version="1.0" encoding="UTF-8"?>
<svg width="24px" height="24px" viewBox="0 0 24 24" version="1.1" xmlns="http://www.w3.org/2000/svg" xmlns:xlink="http://www.w3.org/1999/xlink">
    <!-- Generator: sketchtool 50.2 (55047) - http://www.bohemiancoding.com/sketch -->
    <title>2C78B21D-6E85-4A26-B153-7A8655130C4C</title>
    <desc>Created with sketchtool.</desc>
    <defs>
        <path d="M12.5471191,0.405833479 C15.4854222,0.405833479 17.8673875,2.78779876 17.8673875,5.72610183 L17.8673875,10.6408621 C17.8673875,13.5791651 15.4854222,15.9611304 12.5471191,15.9611304 C9.60881606,15.9611304 7.22685078,13.5791651 7.22685078,10.6408621 L7.22685078,5.72610183 C7.22685078,2.78779876 9.60881606,0.405833479 12.5471191,0.405833479 Z M12.5471191,1.44285327 C10.1964767,1.44285327 8.29090446,3.3484255 8.29090446,5.69906796 L8.29090446,10.6678959 C8.29090446,13.0185384 10.1964767,14.9241106 12.5471191,14.9241106 C14.8977616,14.9241106 16.8033338,13.0185384 16.8033338,10.6678959 L16.8033338,5.69906796 C16.8033338,3.3484255 14.8977616,1.44285327 12.5471191,1.44285327 Z M12.411749,3.88973743 L12.5717489,3.88973743 C12.8478913,3.88973743 13.0717489,4.11359505 13.0717489,4.38973743 L13.0717489,6.69973737 C13.0717489,6.97587974 12.8478913,7.19973737 12.5717489,7.19973737 L12.411749,7.19973737 C12.1356066,7.19973737 11.911749,6.97587974 11.911749,6.69973737 L11.911749,4.38973743 C11.911749,4.11359505 12.1356066,3.88973743 12.411749,3.88973743 Z M12.5497847,23.2590483 L8.28513939,18.9694014 C8.14330836,18.8272275 7.91210435,18.8272275 7.77027333,18.9694014 C7.62892802,19.112064 7.62892802,19.3446234 7.77027333,19.4867973 L12.2923517,24.0353864 C12.4341827,24.1775603 12.664901,24.1775603 12.806732,24.0353864 L17.3288104,19.4867973 C17.3972973,19.4179089 17.4356694,19.3260577 17.4356694,19.2283437 C17.4356694,19.1301411 17.3972973,19.0382898 17.3288104,18.9694014 C17.1869794,18.8272275 16.9557754,18.8272275 16.8139443,18.9694014 L12.5497847,23.2590483 Z" id="path-1"></path>
    </defs>
    <g id="Symbols" stroke="none" stroke-width="1" fill="none" fill-rule="evenodd">
        <g id="Icons-/-Platform-/-ScrollDown">
            <mask id="mask-2" fill="white">
                <use xlink:href="#path-1"></use>
            </mask>
            <use id="Combined-Shape" fill="#D8D8D8" xlink:href="#path-1"></use>
            <g id="Icons-/-XColor-/-Gray-/-ExtraDark" mask="url(#mask-2)" fill="#2D2D2D">
                <rect id="IconColor-/-Gray" x="0" y="0" width="24" height="24"></rect>
            </g>
        </g>
    </g>
</svg>