<?xml version="1.0" encoding="UTF-8"?>
<svg width="24px" height="24px" viewBox="0 0 24 24" version="1.1" xmlns="http://www.w3.org/2000/svg" xmlns:xlink="http://www.w3.org/1999/xlink">
    <!-- Generator: sketchtool 50.2 (55047) - http://www.bohemiancoding.com/sketch -->
    <title>8CD1ADC6-9951-47CC-88A0-26E65C2D3A85</title>
    <desc>Created with sketchtool.</desc>
    <defs>
        <path d="M17.3408357,11.684483 C17.337022,11.7056529 17.3345431,11.7273848 17.3330177,11.7496787 C17.1978228,14.035462 15.2642884,15.8259079 12.931462,15.8259079 C11.7389251,15.8259079 10.6217084,15.3652292 9.78555962,14.5289259 C9.78441552,14.5278018 9.78327141,14.5264904 9.78193663,14.525179 L5.72418399,10.5386876 C5.60862957,10.4249698 5.54494116,10.2741579 5.54494116,10.1136042 C5.54494116,9.95286311 5.60862957,9.80205125 5.72418399,9.68852083 C5.84355209,9.57124353 6.00010354,9.51279223 6.15684568,9.51279223 C6.31358781,9.51279223 6.47032995,9.57143088 6.58950737,9.68852083 L8.156166,11.2275512 C8.31519634,11.3839834 8.55450459,11.430632 8.76235,11.3459525 C8.97057678,11.2614604 9.10596233,11.0621265 9.10596233,10.8410607 L9.10596233,3.17101297 C9.10596233,2.83941422 9.38054709,2.56982631 9.71786685,2.56982631 C10.0553773,2.56982631 10.3297714,2.83960156 10.3297714,3.17101297 L10.3297714,6.04074724 L10.3297714,8.33664706 C10.3297714,8.63883281 10.5789952,8.88331663 10.8861869,8.88331663 C11.1933786,8.88331663 11.4426024,8.63864547 11.4426024,8.33664706 L11.4426024,6.04074724 C11.4426024,5.70914848 11.7173779,5.43974792 12.0545069,5.43974792 C12.3920174,5.43974792 12.6664114,5.70933583 12.6664114,6.04074724 L12.6664114,7.18879082 L12.6664114,8.3368344 C12.6664114,8.63902015 12.9156353,8.88350398 13.222827,8.88350398 C13.5302094,8.88350398 13.7792425,8.63883281 13.7792425,8.3368344 L13.7792425,7.18879082 C13.7792425,6.85719207 14.0540179,6.58760416 14.391147,6.58760416 C14.7288481,6.58760416 15.0030515,6.85737941 15.0030515,7.18879082 L15.0030515,8.3368344 L15.0030515,8.91085619 C15.0030515,9.21304194 15.2522753,9.45771311 15.559467,9.45771311 C15.8670401,9.45771311 16.1158826,9.2128546 16.1158826,8.91085619 L16.1158826,8.3368344 C16.1158826,8.00561034 16.390658,7.73564774 16.7277871,7.73564774 C17.0652975,7.73564774 17.3396916,8.00561034 17.3396916,8.3368344 L17.3396916,11.684483 L17.3408357,11.684483 Z M16.7289312,6.6419339 C17.6800623,6.6419339 18.4538574,7.40236289 18.4538574,8.33664706 L18.4538574,11.7807778 C18.4538574,11.8266771 18.4483276,11.8708902 18.4372679,11.913792 C18.2177908,14.7288218 15.8189878,16.919247 12.931462,16.919247 C11.438598,16.919247 10.0401226,16.3429771 8.99326816,15.2966613 L4.93742236,11.3120433 C4.61173432,10.9920599 4.43230081,10.5664145 4.43230081,10.1137915 C4.43230081,9.66116862 4.61154364,9.23571056 4.93742236,8.91553979 C5.60996435,8.25459042 6.70429905,8.25459042 7.37684104,8.91553979 L7.99332198,9.5212227 L7.99332198,3.17101297 C7.99332198,2.23635412 8.7671171,1.47629981 9.71824822,1.47629981 C10.6693793,1.47629981 11.4431745,2.23635412 11.4431745,3.17101297 L11.4431745,4.4561923 C11.6332863,4.38500161 11.8396062,4.34603407 12.055079,4.34603407 C12.8601463,4.34603407 13.5384088,4.89064287 13.7275672,5.62484372 C13.9319803,5.54053895 14.1566058,5.49407766 14.3919097,5.49407766 C15.1973584,5.49407766 15.8752395,6.0388738 16.0645886,6.7728873 C16.2690017,6.68858253 16.4936273,6.6419339 16.7289312,6.6419339 Z M12.5497847,23.2590483 L16.8139443,18.9694014 C16.9557754,18.8272275 17.1869794,18.8272275 17.3288104,18.9694014 C17.3972973,19.0382898 17.4356694,19.1301411 17.4356694,19.2283437 C17.4356694,19.3260577 17.3972973,19.4179089 17.3288104,19.4867973 L12.806732,24.0353864 C12.664901,24.1775603 12.4341827,24.1775603 12.2923517,24.0353864 L7.77027333,19.4867973 C7.62892802,19.3446234 7.62892802,19.112064 7.77027333,18.9694014 C7.91210435,18.8272275 8.14330836,18.8272275 8.28513939,18.9694014 L12.5497847,23.2590483 Z" id="path-1"></path>
    </defs>
    <g id="Symbols" stroke="none" stroke-width="1" fill="#FFFFFF" fill-rule="evenodd">
        <g id="Icons-/-Platform-/-TouchDown" fill="#FFFFFF">
            <mask id="mask-2" fill="white">
                <use xlink:href="#path-1"></use>
            </mask>
            <use id="Cursor-Hand" fill="#FFFFFF" xlink:href="#path-1"></use>
            <g id="Icons-/-XColor-/-Gray-/-ExtraDark" mask="url(#mask-2)" fill="#FFFFFF">
                <rect id="IconColor-/-Gray" x="0" y="0" width="24" height="24"></rect>
            </g>
        </g>
    </g>
</svg>
