<?xml version="1.0" encoding="utf-8"?>
<!-- Generator: Adobe Illustrator 22.1.0, SVG Export Plug-In . SVG Version: 6.00 Build 0)  -->
<svg version="1.1" id="Layer_1" xmlns="http://www.w3.org/2000/svg" xmlns:xlink="http://www.w3.org/1999/xlink" x="0px" y="0px"
	 viewBox="0 0 215 49" style="enable-background:new 0 0 215 49;" xml:space="preserve">
<style type="text/css">
	.st0{enable-background:new    ;}
	.st1{fill:#888E8E;}
	.st2{clip-path:url(#SVGID_2_);}
	.st3{clip-path:url(#SVGID_4_);fill:url(#SVGID_5_);}
	.st4{clip-path:url(#SVGID_7_);fill:url(#SVGID_8_);}
	.st5{clip-path:url(#SVGID_10_);fill:url(#SVGID_11_);}
	.st6{clip-path:url(#SVGID_13_);fill:url(#SVGID_14_);}
	.st7{clip-path:url(#SVGID_16_);fill:url(#SVGID_17_);}
	.st8{clip-path:url(#SVGID_19_);fill:url(#SVGID_20_);}
	.st9{clip-path:url(#SVGID_22_);fill:url(#SVGID_23_);}
</style>
<title>General / LogoGuiaGorila@2x</title>
<desc>Created with Sketch.</desc>
<g class="st0">
	<path class="st1" d="M24.3,28.4v10.1c-1.3,0.9-2.7,1.6-4.2,2.1s-3.1,0.7-4.8,0.7c-2.1,0-4-0.3-5.7-1c-1.7-0.6-3.1-1.6-4.3-2.7
		c-1.2-1.2-2.1-2.6-2.7-4.2c-0.6-1.6-1-3.4-1-5.3c0-2,0.3-3.7,0.9-5.4s1.5-3,2.7-4.2s2.5-2.1,4.2-2.7c1.6-0.6,3.5-1,5.5-1
		c1,0,2,0.1,2.9,0.2c0.9,0.2,1.7,0.4,2.5,0.7c0.8,0.3,1.5,0.6,2.1,1c0.6,0.4,1.2,0.9,1.8,1.4L23,19.9c-0.2,0.3-0.4,0.5-0.7,0.5
		s-0.6,0-0.9-0.2c-0.3-0.2-0.7-0.4-1-0.6s-0.8-0.5-1.3-0.7c-0.5-0.2-1.1-0.4-1.8-0.5c-0.7-0.1-1.5-0.2-2.5-0.2
		c-1.4,0-2.7,0.2-3.8,0.7S8.8,20,8,20.9c-0.8,0.9-1.4,1.9-1.9,3.1c-0.4,1.2-0.6,2.6-0.6,4.1c0,1.6,0.2,3,0.7,4.3
		c0.5,1.3,1.1,2.3,1.9,3.2c0.8,0.9,1.8,1.5,3,2c1.2,0.5,2.5,0.7,4,0.7c0.6,0,1.1,0,1.6-0.1c0.5-0.1,1-0.2,1.4-0.3s0.9-0.3,1.3-0.5
		c0.4-0.2,0.8-0.4,1.3-0.6v-5.4H17c-0.2,0-0.4-0.1-0.6-0.2c-0.2-0.1-0.2-0.3-0.2-0.5v-2.2H24.3z"/>
	<path class="st1" d="M43.6,22.7V41h-2.1c-0.5,0-0.8-0.2-0.9-0.7l-0.3-1.8c-0.4,0.4-0.8,0.8-1.2,1.2c-0.4,0.3-0.9,0.6-1.4,0.9
		s-1,0.4-1.6,0.6c-0.6,0.1-1.1,0.2-1.8,0.2c-1,0-1.9-0.2-2.7-0.5c-0.8-0.3-1.4-0.8-1.9-1.4c-0.5-0.6-0.9-1.3-1.2-2.2
		c-0.3-0.9-0.4-1.8-0.4-2.8V22.7h3.5v11.6c0,1.3,0.3,2.3,0.9,3.1c0.6,0.7,1.5,1.1,2.8,1.1c0.9,0,1.7-0.2,2.5-0.6
		c0.8-0.4,1.5-1,2.2-1.8V22.7H43.6z"/>
	<path class="st1" d="M52.9,17.1c0,0.3-0.1,0.6-0.2,0.9c-0.1,0.3-0.3,0.6-0.5,0.8c-0.2,0.2-0.5,0.4-0.8,0.5
		c-0.3,0.1-0.6,0.2-0.9,0.2c-0.3,0-0.6-0.1-0.9-0.2S49,19,48.8,18.8c-0.2-0.2-0.4-0.5-0.5-0.8S48,17.4,48,17.1
		c0-0.3,0.1-0.7,0.2-0.9c0.1-0.3,0.3-0.6,0.5-0.8c0.2-0.2,0.5-0.4,0.8-0.5s0.6-0.2,0.9-0.2c0.3,0,0.6,0.1,0.9,0.2
		c0.3,0.1,0.6,0.3,0.8,0.5c0.2,0.2,0.4,0.5,0.5,0.8C52.8,16.4,52.9,16.7,52.9,17.1z M52.2,22.7V41h-3.5V22.7H52.2z"/>
	<path class="st1" d="M56.8,25.3c1-1,2.1-1.7,3.3-2.2c1.2-0.5,2.5-0.7,3.9-0.7c1,0,2,0.2,2.8,0.5c0.8,0.3,1.5,0.8,2,1.4
		c0.6,0.6,1,1.3,1.3,2.2c0.3,0.9,0.4,1.8,0.4,2.8V41H69c-0.3,0-0.6-0.1-0.8-0.2s-0.3-0.3-0.4-0.6l-0.4-1.6c-0.5,0.4-0.9,0.8-1.4,1.1
		c-0.5,0.3-0.9,0.6-1.4,0.8c-0.5,0.2-1,0.4-1.6,0.5c-0.6,0.1-1.2,0.2-1.9,0.2c-0.7,0-1.4-0.1-2-0.3c-0.6-0.2-1.2-0.5-1.6-0.9
		c-0.5-0.4-0.8-0.9-1.1-1.5c-0.3-0.6-0.4-1.3-0.4-2.1c0-0.7,0.2-1.4,0.6-2.1c0.4-0.7,1-1.3,1.9-1.8c0.9-0.5,2-1,3.5-1.3
		c1.4-0.3,3.2-0.5,5.2-0.6v-1.3c0-1.4-0.3-2.4-0.9-3.1c-0.6-0.7-1.5-1-2.6-1c-0.8,0-1.4,0.1-1.9,0.3c-0.5,0.2-1,0.4-1.3,0.6
		c-0.4,0.2-0.7,0.4-1,0.6c-0.3,0.2-0.6,0.3-0.9,0.3c-0.2,0-0.4-0.1-0.6-0.2s-0.3-0.3-0.4-0.5L56.8,25.3z M67.1,32.9
		c-1.4,0-2.6,0.2-3.6,0.3c-1,0.2-1.8,0.4-2.4,0.7s-1.1,0.6-1.4,1c-0.3,0.4-0.4,0.8-0.4,1.3c0,0.5,0.1,0.8,0.2,1.2
		c0.1,0.3,0.4,0.6,0.6,0.8c0.3,0.2,0.6,0.4,0.9,0.5c0.3,0.1,0.7,0.1,1.1,0.1c0.5,0,1-0.1,1.5-0.2c0.4-0.1,0.9-0.3,1.3-0.5
		s0.8-0.4,1.1-0.7s0.7-0.6,1.1-1V32.9z"/>
</g>
<g id="LogoGorila_2_">
	<g>
		<defs>
			<rect id="SVGID_1_" x="76.3" y="3.6" width="135" height="39.6"/>
		</defs>
		<clipPath id="SVGID_2_">
			<use xlink:href="#SVGID_1_"  style="overflow:visible;"/>
		</clipPath>
		<g class="st2">
			<defs>
				<path id="SVGID_3_" d="M121.5,28.9c0-3.4,2.7-6.1,6.1-6.1c3.4,0,6.1,2.7,6.1,6.1s-2.7,6.1-6.1,6.1
					C124.3,35.1,121.5,32.3,121.5,28.9 M117.6,19.4c0.3,0.3,0.6,0.8,0.6,1.3v13.5c0,1-0.9,1.9-1.9,1.9h-0.5c2.4,4,6.8,6.7,11.9,6.7
					c7.7,0,13.9-6.2,13.9-13.9c0-7.7-6.2-13.9-13.9-13.9C123.7,15.1,120.1,16.7,117.6,19.4"/>
			</defs>
			<clipPath id="SVGID_4_">
				<use xlink:href="#SVGID_3_"  style="overflow:visible;"/>
			</clipPath>
			
				<linearGradient id="SVGID_5_" gradientUnits="userSpaceOnUse" x1="0.4374" y1="49.0435" x2="0.8515" y2="49.0435" gradientTransform="matrix(-334.7035 0 0 334.7035 380.0274 -16386.0859)">
				<stop  offset="0" style="stop-color:#5BE484"/>
				<stop  offset="1" style="stop-color:#10C0C6"/>
			</linearGradient>
			<rect x="115.8" y="15.1" class="st3" width="25.7" height="27.8"/>
		</g>
		<g class="st2">
			<defs>
				<path id="SVGID_6_" d="M94.3,4C84.7,4.7,77,12.4,76.3,22c-0.8,11.4,8.2,20.9,19.4,20.9c8,0,13.7-4.9,16.1-11.8v3.2
					c0,0.4,0.3,0.7,0.7,0.7h3.7c0.4,0,0.7-0.3,0.7-0.7V20.7c0-0.4-0.3-0.7-0.7-0.7h-3.1c0,0,0,0,0,0h-9.5h-1.9
					c-0.4,0-0.7,0.3-0.7,0.7v3.8c0,0.4,0.3,0.7,0.7,0.7h2.4c-0.9,4.1-4.8,7.2-9.3,6.7c-4-0.4-7.2-3.6-7.6-7.6
					c-0.6-5.2,3.5-9.6,8.5-9.6h16.1c0.6,0,1-0.7,0.7-1.2c-3.4-5.8-9.6-9.7-16.8-9.7C95.2,3.9,94.8,3.9,94.3,4"/>
			</defs>
			<clipPath id="SVGID_7_">
				<use xlink:href="#SVGID_6_"  style="overflow:visible;"/>
			</clipPath>
			
				<linearGradient id="SVGID_8_" gradientUnits="userSpaceOnUse" x1="0.4374" y1="49.0671" x2="0.8515" y2="49.0671" gradientTransform="matrix(-334.7035 0 0 334.7035 380.0274 -16399.5488)">
				<stop  offset="0" style="stop-color:#5BE484"/>
				<stop  offset="1" style="stop-color:#10C0C6"/>
			</linearGradient>
			<rect x="75.5" y="3.9" class="st4" width="41.4" height="38.9"/>
		</g>
		<g class="st2">
			<defs>
				<path id="SVGID_9_" d="M150,18.9c-0.3,0.3-0.8,0.2-1-0.2l-0.6-1.6c-0.1-0.2-0.3-0.4-0.6-0.4h-4.8c-0.3,0-0.6,0.3-0.6,0.6v24.7
					c0,0.3,0.3,0.6,0.6,0.6h6.3c0.3,0,0.6-0.3,0.6-0.6V28.3c0,0,0-0.1,0-0.1c0.8-3.9,4.9-6.5,9.1-5c0.3,0.1,0.6,0,0.8-0.3l2.4-5.5
					c0.1-0.3,0-0.7-0.4-0.8c-1.2-0.3-2.5-0.5-3.7-0.5C155.1,16,152,16.9,150,18.9"/>
			</defs>
			<clipPath id="SVGID_10_">
				<use xlink:href="#SVGID_9_"  style="overflow:visible;"/>
			</clipPath>
			
				<linearGradient id="SVGID_11_" gradientUnits="userSpaceOnUse" x1="0.4374" y1="49.0421" x2="0.8515" y2="49.0421" gradientTransform="matrix(-334.7035 0 0 334.7035 380.0274 -16385.291)">
				<stop  offset="0" style="stop-color:#5BE484"/>
				<stop  offset="1" style="stop-color:#10C0C6"/>
			</linearGradient>
			<rect x="142.5" y="16" class="st5" width="19.9" height="26.6"/>
		</g>
		<g class="st2">
			<defs>
				<path id="SVGID_12_" d="M173.5,3.6c-0.3,0-0.5,0.2-0.5,0.5V42c0,0.3,0.2,0.5,0.5,0.5h6.6c0.3,0,0.5-0.2,0.5-0.5V4.2
					c0-0.3-0.2-0.5-0.5-0.5H173.5z"/>
			</defs>
			<clipPath id="SVGID_13_">
				<use xlink:href="#SVGID_12_"  style="overflow:visible;"/>
			</clipPath>
			
				<linearGradient id="SVGID_14_" gradientUnits="userSpaceOnUse" x1="0.4374" y1="49.0682" x2="0.8515" y2="49.0682" gradientTransform="matrix(-334.7035 0 0 334.7035 380.0274 -16400.1992)">
				<stop  offset="0" style="stop-color:#5BE484"/>
				<stop  offset="1" style="stop-color:#10C0C6"/>
			</linearGradient>
			<rect x="173" y="3.6" class="st6" width="7.7" height="38.9"/>
		</g>
		<g class="st2">
			<defs>
				<path id="SVGID_15_" d="M192.2,34.6c-1.3-1.4-2-3.1-2-5c0-1.9,0.7-3.7,2-5c1.3-1.3,3-2,4.8-2s3.5,0.7,4.7,2c1.3,1.3,2,3.1,2,5
					c0,1.9-0.7,3.6-2,5c-1.3,1.3-2.9,2-4.7,2S193.5,35.9,192.2,34.6 M194.8,15.9c-6.8,0.6-12.2,6.1-12.6,12.9
					c-0.4,7.9,5.9,14.5,13.7,14.5c3.4,0,6.5-1.2,8.9-3.2v2c0,0.3,0.2,0.5,0.5,0.5h5.4c0.3,0,0.5-0.2,0.5-0.5V17.1
					c0-0.3-0.2-0.5-0.5-0.5h-4.9c-0.2,0-0.4,0.2-0.5,0.4l-0.5,2.1c-2.4-2-5.5-3.2-8.9-3.2C195.6,15.9,195.2,15.9,194.8,15.9"/>
			</defs>
			<clipPath id="SVGID_16_">
				<use xlink:href="#SVGID_15_"  style="overflow:visible;"/>
			</clipPath>
			
				<linearGradient id="SVGID_17_" gradientUnits="userSpaceOnUse" x1="0.4403" y1="49.0408" x2="0.8544" y2="49.0408" gradientTransform="matrix(-334.7035 0 0 334.7035 381.6843 -16384.5645)">
				<stop  offset="0" style="stop-color:#5BE484"/>
				<stop  offset="1" style="stop-color:#10C0C6"/>
			</linearGradient>
			<rect x="181.9" y="15.9" class="st7" width="29.4" height="27.4"/>
		</g>
		<g class="st2">
			<defs>
				<path id="SVGID_18_" d="M164,16.5c-0.3,0-0.5,0.2-0.5,0.5v25c0,0.3,0.2,0.5,0.5,0.5h6.7c0.3,0,0.5-0.2,0.5-0.5V17
					c0-0.3-0.2-0.5-0.5-0.5H164z"/>
			</defs>
			<clipPath id="SVGID_19_">
				<use xlink:href="#SVGID_18_"  style="overflow:visible;"/>
			</clipPath>
			
				<linearGradient id="SVGID_20_" gradientUnits="userSpaceOnUse" x1="0.4374" y1="49.0411" x2="0.8515" y2="49.0411" gradientTransform="matrix(-334.7035 0 0 334.7035 380.0274 -16384.7012)">
				<stop  offset="0" style="stop-color:#5BE484"/>
				<stop  offset="1" style="stop-color:#10C0C6"/>
			</linearGradient>
			<rect x="163.4" y="16.5" class="st8" width="7.8" height="26.1"/>
		</g>
		<g class="st2">
			<defs>
				<path id="SVGID_21_" d="M163.2,8.1c0,2.3,1.9,4.2,4.2,4.2s4.2-1.9,4.2-4.2c0-2.3-1.9-4.2-4.2-4.2S163.2,5.8,163.2,8.1"/>
			</defs>
			<clipPath id="SVGID_22_">
				<use xlink:href="#SVGID_21_"  style="overflow:visible;"/>
			</clipPath>
			
				<linearGradient id="SVGID_23_" gradientUnits="userSpaceOnUse" x1="0.4374" y1="49.1317" x2="0.8515" y2="49.1317" gradientTransform="matrix(-334.7035 0 0 334.7035 380.0274 -16436.4844)">
				<stop  offset="0" style="stop-color:#5BE484"/>
				<stop  offset="1" style="stop-color:#10C0C6"/>
			</linearGradient>
			<rect x="163.2" y="3.9" class="st9" width="8.3" height="8.3"/>
		</g>
	</g>
</g>
</svg>
