<?xml version="1.0" encoding="UTF-8"?>
<svg width="1547px" height="792px" viewBox="0 0 1547 792" version="1.1" xmlns="http://www.w3.org/2000/svg" xmlns:xlink="http://www.w3.org/1999/xlink">
    <!-- Generator: sketchtool 50.2 (55047) - http://www.bohemiancoding.com/sketch -->
    <title>3530D11E-5B29-465E-9E4C-BEFC59F5C5B8</title>
    <desc>Created with sketchtool.</desc>
    <defs>
        <linearGradient x1="0%" y1="100%" x2="100%" y2="0%" id="linearGradient-1">
            <stop stop-color="#815AE8" offset="0%"></stop>
            <stop stop-color="#9278F4" offset="100%"></stop>
        </linearGradient>
    </defs>
    <g id="Symbols" stroke="none" stroke-width="1" fill="none" fill-rule="evenodd">
        <g id="Path-/-Hero-B">
            <path d="M0,672.832942 C333.666907,720.509848 592.371884,728.693316 776.114931,697.383346 C1051.7295,650.41839 1263.51508,599.457299 1407.48988,599.457299 C1414.83671,599.457299 1414.83671,585.914007 1407.48988,558.827423 L1407.48988,-1 L0,-1 L0,672.832942 Z" id="Path" fill="#FFFFFF"></path>
            <path d="M950.570615,624.327255 C690.310495,844.118174 557.969206,230.626874 646.325749,-31.2208418 C734.682293,-293.068557 836.115022,-372.304415 1092.50136,-272.102914 C1348.88771,-171.901413 1663.13937,69.7931767 1574.78283,331.640892 C1486.42629,593.488608 1210.83073,404.536336 950.570615,624.327255 Z" id="Oval" fill="url(#linearGradient-1)" opacity="0.9" transform="translate(1104.500000, 178.500000) rotate(72.000000) translate(-1104.500000, -178.500000) "></path>
        </g>
    </g>
</svg>
