<?xml version="1.0" encoding="UTF-8"?>
<svg width="41px" height="40px" viewBox="0 0 41 40" version="1.1" xmlns="http://www.w3.org/2000/svg" xmlns:xlink="http://www.w3.org/1999/xlink">
    <!-- Generator: sketchtool 50.2 (55047) - http://www.bohemiancoding.com/sketch -->
    <title>33CF2341-DCC8-4A8A-A260-C8F2F944C37C</title>
    <desc>Created with sketchtool.</desc>
    <defs></defs>
    <g id="Symbols" stroke="none" stroke-width="1" fill="none" fill-rule="evenodd">
        <g id="Footer" transform="translate(-1428.000000, -36.000000)">
            <g id="Social-Media-/-Linkedin" transform="translate(1428.000000, 36.000000)">
                <path d="M20.5,40 C31.8218374,40 41,31.045695 41,20 C41,8.954305 31.8218374,0 20.5,0 C9.17816263,0 0,8.954305 0,20 C0,31.045695 9.17816263,40 20.5,40 Z" id="Oval-2" fill="#CACBCC"></path>
                <path d="M28,28 L24.8921875,28 L24.8921875,23.1274184 C24.8921875,21.9656252 24.8715625,20.4713543 23.276875,20.4713543 C21.6596875,20.4713543 21.413125,21.737399 21.413125,23.0447686 L21.413125,28 L18.308125,28 L18.308125,17.9805898 L21.2875,17.9805898 L21.2875,19.350886 L21.330625,19.350886 C21.745,18.5628952 22.759375,17.7317012 24.2715625,17.7317012 C27.41875,17.7317012 28,19.8063991 28,22.5047273 L28,28 Z M14.80375,16.6121721 C13.8053125,16.6121721 13,15.8025797 13,14.806086 C13,13.8095924 13.8053125,13 14.80375,13 C15.7975,13 16.6046875,13.8095924 16.6046875,14.806086 C16.6046875,15.8025797 15.7975,16.6121721 14.80375,16.6121721 L14.80375,16.6121721 Z M16.358125,28 L13.2465625,28 L13.2465625,17.9805898 L16.358125,17.9805898 L16.358125,28 Z" id="Fill-118" fill="#444444"></path>
            </g>
        </g>
    </g>
</svg>