<?xml version="1.0" encoding="UTF-8"?>
<svg width="41px" height="40px" viewBox="0 0 41 40" version="1.1" xmlns="http://www.w3.org/2000/svg" xmlns:xlink="http://www.w3.org/1999/xlink">
    <!-- Generator: sketchtool 50.2 (55047) - http://www.bohemiancoding.com/sketch -->
    <title>1B434538-4723-40E4-B463-2DA1B970B0A7</title>
    <desc>Created with sketchtool.</desc>
    <defs></defs>
    <g id="Symbols" stroke="none" stroke-width="1" fill="none" fill-rule="evenodd">
        <g id="Footer" transform="translate(-1375.000000, -36.000000)">
            <g id="Social-Media-/-Instagram" transform="translate(1375.000000, 36.000000)">
                <path d="M20.5,40 C31.8218374,40 41,31.045695 41,20 C41,8.954305 31.8218374,0 20.5,0 C9.17816263,0 0,8.954305 0,20 C0,31.045695 9.17816263,40 20.5,40 Z" id="Oval-2" fill="#CACBCC"></path>
                <path d="M29.125,29.84375 L11.875,29.84375 C11.47825,29.84375 11.15625,29.52175 11.15625,29.125 L11.15625,18.34375 L14.03125,18.34375 C13.6567812,18.8828125 13.5302812,19.8883438 13.5302812,20.5265938 C13.5302812,24.3755 16.6690625,27.5070938 20.5265937,27.5070938 C24.3848437,27.5070938 27.523625,24.3755 27.523625,20.5265938 C27.523625,19.8883438 27.4330625,18.8979062 26.96875,18.34375 L29.84375,18.34375 L29.84375,29.125 C29.84375,29.52175 29.52175,29.84375 29.125,29.84375 M20.5265937,16.1141875 C22.969625,16.1141875 24.9497812,18.0900313 24.9497812,20.5265938 C24.9497812,22.963875 22.969625,24.9397188 20.5265937,24.9397188 C18.0842813,24.9397188 16.104125,22.963875 16.104125,20.5265938 C16.104125,18.0900313 18.0842813,16.1141875 20.5265937,16.1141875 M26.25,11.875 L28.40625,11.875 C28.803,11.875 29.125,12.197 29.125,12.59375 L29.125,14.75 C29.125,15.14675 28.803,15.46875 28.40625,15.46875 L26.25,15.46875 C25.85325,15.46875 25.53125,15.14675 25.53125,14.75 L25.53125,12.59375 C25.53125,12.197 25.85325,11.875 26.25,11.875 M29.265875,9 L11.734125,9 C10.2240312,9 9,10.2211562 9,11.7276562 L9,29.2723438 C9,30.7788438 10.2240312,32 11.734125,32 L29.265875,32 C30.7759688,32 32,30.7788438 32,29.2723438 L32,11.7276562 C32,10.2211562 30.7759688,9 29.265875,9" id="Fill-23" fill="#444444"></path>
            </g>
        </g>
    </g>
</svg>