<?xml version="1.0" encoding="UTF-8"?>
<svg width="375px" height="691px" viewBox="0 0 375 691" version="1.1" xmlns="http://www.w3.org/2000/svg" xmlns:xlink="http://www.w3.org/1999/xlink">
    <!-- Generator: sketchtool 50.2 (55047) - http://www.bohemiancoding.com/sketch -->
    <title>FFB7506F-7471-4637-BCD2-E21C903DA100</title>
    <desc>Created with sketchtool.</desc>
    <defs>
        <linearGradient x1="0%" y1="100%" x2="100%" y2="0%" id="linearGradient-1">
            <stop stop-color="#815AE8" offset="0%"></stop>
            <stop stop-color="#9278F4" offset="100%"></stop>
        </linearGradient>
    </defs>
    <g id="Landing-Page" stroke="none" stroke-width="1" fill="none" fill-rule="evenodd">
        <g id="Produtos-B-/-Mobile">
            <g id="Path-/-Hero-B-/-Mobile" transform="translate(-20.000000, 2.000000)">
                <path d="M0,647.398274 C99.4152638,693.346311 176.495798,701.233029 231.241604,671.058427 C313.360312,625.796523 376.461322,576.683394 419.358273,576.683394 C421.547242,576.683394 421.547242,563.631212 419.358273,537.526847 L419.358273,-2 L0,-2 L0,647.398274 Z" id="Path" fill="#FFFFFF"></path>
                <path d="M316.737078,314.033843 C171.731182,436.313461 97.9962309,95.0005348 147.224748,-50.677179 C196.453265,-196.354893 252.967278,-240.43738 395.81487,-184.690758 C538.662461,-128.944136 713.750155,5.5214831 664.521638,151.199197 C615.293121,296.876911 461.742973,191.754225 316.737078,314.033843 Z" id="Oval" fill="url(#linearGradient-1)" opacity="0.9" transform="translate(402.500000, 66.000000) rotate(71.000000) translate(-402.500000, -66.000000) "></path>
            </g>
        </g>
    </g>
</svg>